<svg xmlns="http://www.w3.org/2000/svg" viewBox="10 -10 1290 770" font-family="Helvetica, Arial, sans-serif"><defs><marker id="arrow-e03131" markerWidth="9" markerHeight="7" refX="8" refY="3.5" orient="auto"><path d="M0,0 L9,3.5 L0,7 Z" fill="#e03131"/></marker></defs><rect x="10" y="-10" width="1290" height="770" fill="#ffffff"/><text x="30" y="31.6" font-size="24" fill="#1e1e1e">PCAH Video Wall — Power Distribution (10 Displays)</text><text x="30" y="109.4" font-size="16" fill="#1e1e1e">POWER 1</text><ellipse cx="135" cy="105" rx="15" ry="15" fill="#ffc9c9" stroke="#e03131" stroke-width="2"/><rect x="190" y="80" width="400" height="50" rx="10" fill="#e9ecef" stroke="#495057" stroke-width="2"/><text x="390" y="105" font-size="14" fill="#495057" text-anchor="middle" dominant-baseline="central">8-WAY POWER SPLITTER</text><rect x="830" y="80" width="420" height="50" rx="10" fill="#e9ecef" stroke="#495057" stroke-width="2"/><text x="1040" y="105" font-size="14" fill="#495057" text-anchor="middle" dominant-baseline="central">8-WAY POWER SPLITTER</text><polyline points="150,105 190,105" fill="none" stroke="#e03131" stroke-width="2" marker-end="url(#arrow-e03131)"/><polyline points="590,105 830,105" fill="none" stroke="#e03131" stroke-width="2" marker-end="url(#arrow-e03131)"/><text x="30" y="429.4" font-size="16" fill="#1e1e1e">POWER 2</text><ellipse cx="135" cy="425" rx="15" ry="15" fill="#ffc9c9" stroke="#e03131" stroke-width="2"/><rect x="190" y="400" width="600" height="50" rx="10" fill="#e9ecef" stroke="#495057" stroke-width="2"/><text x="490" y="425" font-size="14" fill="#495057" text-anchor="middle" dominant-baseline="central">8-WAY POWER SPLITTER</text><polyline points="150,425 190,425" fill="none" stroke="#e03131" stroke-width="2" marker-end="url(#arrow-e03131)"/><rect x="140" y="200" width="120" height="60" rx="10" fill="none" stroke="#1e1e1e" stroke-width="2"/><text x="200" y="230" font-size="16" fill="#1e1e1e" text-anchor="middle" dominant-baseline="central">TV 1</text><polyline points="200,130 200,200" fill="none" stroke="#e03131" stroke-width="2" marker-end="url(#arrow-e03131)"/><rect x="320" y="200" width="120" height="60" rx="10" fill="none" stroke="#1e1e1e" stroke-width="2"/><text x="380" y="230" font-size="16" fill="#1e1e1e" text-anchor="middle" dominant-baseline="central">TV 2</text><polyline points="380,130 380,200" fill="none" stroke="#e03131" stroke-width="2" marker-end="url(#arrow-e03131)"/><rect x="500" y="200" width="120" height="60" rx="10" fill="none" stroke="#1e1e1e" stroke-width="2"/><text x="560" y="230" font-size="16" fill="#1e1e1e" text-anchor="middle" dominant-baseline="central">TV 3</text><polyline points="560,130 560,200" fill="none" stroke="#e03131" stroke-width="2" marker-end="url(#arrow-e03131)"/><rect x="800" y="200" width="120" height="60" rx="10" fill="none" stroke="#1e1e1e" stroke-width="2"/><text x="860" y="230" font-size="16" fill="#1e1e1e" text-anchor="middle" dominant-baseline="central">TV 4</text><polyline points="860,130 860,200" fill="none" stroke="#e03131" stroke-width="2" marker-end="url(#arrow-e03131)"/><rect x="980" y="200" width="120" height="60" rx="10" fill="none" stroke="#1e1e1e" stroke-width="2"/><text x="1040" y="230" font-size="16" fill="#1e1e1e" text-anchor="middle" dominant-baseline="central">TV 5</text><polyline points="1040,130 1040,200" fill="none" stroke="#e03131" stroke-width="2" marker-end="url(#arrow-e03131)"/><rect x="1160" y="200" width="120" height="60" rx="10" fill="none" stroke="#1e1e1e" stroke-width="2"/><text x="1220" y="230" font-size="16" fill="#1e1e1e" text-anchor="middle" dominant-baseline="central">TV 6</text><polyline points="1220,130 1220,200" fill="none" stroke="#e03131" stroke-width="2" marker-end="url(#arrow-e03131)"/><rect x="140" y="520" width="120" height="60" rx="10" fill="none" stroke="#1e1e1e" stroke-width="2"/><text x="200" y="550" font-size="16" fill="#1e1e1e" text-anchor="middle" dominant-baseline="central">TV 7</text><polyline points="200,450 200,520" fill="none" stroke="#e03131" stroke-width="2" marker-end="url(#arrow-e03131)"/><rect x="320" y="520" width="120" height="60" rx="10" fill="none" stroke="#1e1e1e" stroke-width="2"/><text x="380" y="550" font-size="16" fill="#1e1e1e" text-anchor="middle" dominant-baseline="central">TV 8</text><polyline points="380,450 380,520" fill="none" stroke="#e03131" stroke-width="2" marker-end="url(#arrow-e03131)"/><rect x="500" y="520" width="120" height="60" rx="10" fill="none" stroke="#1e1e1e" stroke-width="2"/><text x="560" y="550" font-size="16" fill="#1e1e1e" text-anchor="middle" dominant-baseline="central">TV 9</text><polyline points="560,450 560,520" fill="none" stroke="#e03131" stroke-width="2" marker-end="url(#arrow-e03131)"/><rect x="680" y="520" width="120" height="60" rx="10" fill="none" stroke="#1e1e1e" stroke-width="2"/><text x="740" y="550" font-size="16" fill="#1e1e1e" text-anchor="middle" dominant-baseline="central">TV 10</text><polyline points="740,450 740,520" fill="none" stroke="#e03131" stroke-width="2" marker-end="url(#arrow-e03131)"/><text x="190" y="631.7" font-size="13" fill="#495057">Converters draw power from the TVs' USB ports — see 04-full-system.</text><polyline points="165,705 210,705" fill="none" stroke="#e03131" stroke-width="3"/><text x="220" y="707.7" font-size="13" fill="#1e1e1e">POWER</text><rect x="299" y="691" width="34" height="28" rx="10" fill="#e9ecef" stroke="#495057" stroke-width="2"/><text x="343" y="707.7" font-size="13" fill="#1e1e1e">8-WAY POWER SPLITTER</text><rect x="539" y="691" width="34" height="28" rx="10" fill="none" stroke="#1e1e1e" stroke-width="2"/><text x="583" y="707.7" font-size="13" fill="#1e1e1e">DISPLAY</text><rect x="140" y="670" width="527.6" height="70" rx="10" fill="none" stroke="#1e1e1e" stroke-width="2"/></svg>
