<svg xmlns="http://www.w3.org/2000/svg" viewBox="10 -20 1860 960" font-family="Helvetica, Arial, sans-serif"><defs><marker id="arrow-1971c2" markerWidth="9" markerHeight="7" refX="8" refY="3.5" orient="auto"><path d="M0,0 L9,3.5 L0,7 Z" fill="#1971c2"/></marker><marker id="arrow-2f9e44" markerWidth="9" markerHeight="7" refX="8" refY="3.5" orient="auto"><path d="M0,0 L9,3.5 L0,7 Z" fill="#2f9e44"/></marker><marker id="arrow-e03131" markerWidth="9" markerHeight="7" refX="8" refY="3.5" orient="auto"><path d="M0,0 L9,3.5 L0,7 Z" fill="#e03131"/></marker></defs><rect x="10" y="-20" width="1860" height="960" fill="#ffffff"/><text x="30" y="21.6" font-size="24" fill="#1e1e1e">PCAH Video Wall — SDI Daisy Chain (8 Displays)</text><text x="30" y="69.4" font-size="16" fill="#1e1e1e">POWER 1</text><ellipse cx="135" cy="65" rx="15" ry="15" fill="#ffc9c9" stroke="#e03131" stroke-width="2"/><text x="30" y="129.4" font-size="16" fill="#1e1e1e">POWER 2</text><ellipse cx="135" cy="125" rx="15" ry="15" fill="#ffc9c9" stroke="#e03131" stroke-width="2"/><rect x="40" y="230" width="150" height="70" rx="10" fill="#a5d8ff" stroke="#1971c2" stroke-width="2"/><text x="115" y="265" font-size="14" fill="#1971c2" text-anchor="middle" dominant-baseline="central">SDI SOURCE</text><rect x="260" y="230" width="130" height="70" rx="10" fill="#eebefa" stroke="#9c36b5" stroke-width="2"/><text x="325" y="257.5" font-size="12" fill="#9c36b5" text-anchor="middle" dominant-baseline="central">BLACKMAGIC</text><text x="325" y="272.5" font-size="12" fill="#9c36b5" text-anchor="middle" dominant-baseline="central">SDI → HDMI</text><rect x="265" y="390" width="120" height="60" rx="10" fill="none" stroke="#1e1e1e" stroke-width="2"/><text x="325" y="420" font-size="16" fill="#1e1e1e" text-anchor="middle" dominant-baseline="central">TV 1</text><polyline points="325,300 325,390" fill="none" stroke="#2f9e44" stroke-width="2" marker-end="url(#arrow-2f9e44)"/><rect x="460" y="230" width="130" height="70" rx="10" fill="#eebefa" stroke="#9c36b5" stroke-width="2"/><text x="525" y="257.5" font-size="12" fill="#9c36b5" text-anchor="middle" dominant-baseline="central">BLACKMAGIC</text><text x="525" y="272.5" font-size="12" fill="#9c36b5" text-anchor="middle" dominant-baseline="central">SDI → HDMI</text><rect x="465" y="390" width="120" height="60" rx="10" fill="none" stroke="#1e1e1e" stroke-width="2"/><text x="525" y="420" font-size="16" fill="#1e1e1e" text-anchor="middle" dominant-baseline="central">TV 2</text><polyline points="525,300 525,390" fill="none" stroke="#2f9e44" stroke-width="2" marker-end="url(#arrow-2f9e44)"/><rect x="660" y="230" width="130" height="70" rx="10" fill="#eebefa" stroke="#9c36b5" stroke-width="2"/><text x="725" y="257.5" font-size="12" fill="#9c36b5" text-anchor="middle" dominant-baseline="central">BLACKMAGIC</text><text x="725" y="272.5" font-size="12" fill="#9c36b5" text-anchor="middle" dominant-baseline="central">SDI → HDMI</text><rect x="665" y="390" width="120" height="60" rx="10" fill="none" stroke="#1e1e1e" stroke-width="2"/><text x="725" y="420" font-size="16" fill="#1e1e1e" text-anchor="middle" dominant-baseline="central">TV 3</text><polyline points="725,300 725,390" fill="none" stroke="#2f9e44" stroke-width="2" marker-end="url(#arrow-2f9e44)"/><rect x="860" y="230" width="130" height="70" rx="10" fill="#eebefa" stroke="#9c36b5" stroke-width="2"/><text x="925" y="257.5" font-size="12" fill="#9c36b5" text-anchor="middle" dominant-baseline="central">BLACKMAGIC</text><text x="925" y="272.5" font-size="12" fill="#9c36b5" text-anchor="middle" dominant-baseline="central">SDI → HDMI</text><rect x="865" y="390" width="120" height="60" rx="10" fill="none" stroke="#1e1e1e" stroke-width="2"/><text x="925" y="420" font-size="16" fill="#1e1e1e" text-anchor="middle" dominant-baseline="central">TV 4</text><polyline points="925,300 925,390" fill="none" stroke="#2f9e44" stroke-width="2" marker-end="url(#arrow-2f9e44)"/><rect x="260" y="560" width="130" height="70" rx="10" fill="#eebefa" stroke="#9c36b5" stroke-width="2"/><text x="325" y="587.5" font-size="12" fill="#9c36b5" text-anchor="middle" dominant-baseline="central">BLACKMAGIC</text><text x="325" y="602.5" font-size="12" fill="#9c36b5" text-anchor="middle" dominant-baseline="central">SDI → HDMI</text><rect x="265" y="720" width="120" height="60" rx="10" fill="none" stroke="#1e1e1e" stroke-width="2"/><text x="325" y="750" font-size="16" fill="#1e1e1e" text-anchor="middle" dominant-baseline="central">TV 5</text><polyline points="325,630 325,720" fill="none" stroke="#2f9e44" stroke-width="2" marker-end="url(#arrow-2f9e44)"/><rect x="460" y="560" width="130" height="70" rx="10" fill="#eebefa" stroke="#9c36b5" stroke-width="2"/><text x="525" y="587.5" font-size="12" fill="#9c36b5" text-anchor="middle" dominant-baseline="central">BLACKMAGIC</text><text x="525" y="602.5" font-size="12" fill="#9c36b5" text-anchor="middle" dominant-baseline="central">SDI → HDMI</text><rect x="465" y="720" width="120" height="60" rx="10" fill="none" stroke="#1e1e1e" stroke-width="2"/><text x="525" y="750" font-size="16" fill="#1e1e1e" text-anchor="middle" dominant-baseline="central">TV 6</text><polyline points="525,630 525,720" fill="none" stroke="#2f9e44" stroke-width="2" marker-end="url(#arrow-2f9e44)"/><rect x="660" y="560" width="130" height="70" rx="10" fill="#eebefa" stroke="#9c36b5" stroke-width="2"/><text x="725" y="587.5" font-size="12" fill="#9c36b5" text-anchor="middle" dominant-baseline="central">BLACKMAGIC</text><text x="725" y="602.5" font-size="12" fill="#9c36b5" text-anchor="middle" dominant-baseline="central">SDI → HDMI</text><rect x="665" y="720" width="120" height="60" rx="10" fill="none" stroke="#1e1e1e" stroke-width="2"/><text x="725" y="750" font-size="16" fill="#1e1e1e" text-anchor="middle" dominant-baseline="central">TV 7</text><polyline points="725,630 725,720" fill="none" stroke="#2f9e44" stroke-width="2" marker-end="url(#arrow-2f9e44)"/><rect x="860" y="560" width="130" height="70" rx="10" fill="#eebefa" stroke="#9c36b5" stroke-width="2"/><text x="925" y="587.5" font-size="12" fill="#9c36b5" text-anchor="middle" dominant-baseline="central">BLACKMAGIC</text><text x="925" y="602.5" font-size="12" fill="#9c36b5" text-anchor="middle" dominant-baseline="central">SDI → HDMI</text><rect x="865" y="720" width="120" height="60" rx="10" fill="none" stroke="#1e1e1e" stroke-width="2"/><text x="925" y="750" font-size="16" fill="#1e1e1e" text-anchor="middle" dominant-baseline="central">TV 8</text><polyline points="925,630 925,720" fill="none" stroke="#2f9e44" stroke-width="2" marker-end="url(#arrow-2f9e44)"/><polyline points="190,265 260,265" fill="none" stroke="#1971c2" stroke-width="2" marker-end="url(#arrow-1971c2)"/><polyline points="390,265 460,265" fill="none" stroke="#1971c2" stroke-width="2" marker-end="url(#arrow-1971c2)"/><polyline points="590,265 660,265" fill="none" stroke="#1971c2" stroke-width="2" marker-end="url(#arrow-1971c2)"/><polyline points="790,265 860,265" fill="none" stroke="#1971c2" stroke-width="2" marker-end="url(#arrow-1971c2)"/><polyline points="390,595 460,595" fill="none" stroke="#1971c2" stroke-width="2" marker-end="url(#arrow-1971c2)"/><polyline points="590,595 660,595" fill="none" stroke="#1971c2" stroke-width="2" marker-end="url(#arrow-1971c2)"/><polyline points="790,595 860,595" fill="none" stroke="#1971c2" stroke-width="2" marker-end="url(#arrow-1971c2)"/><polyline points="990,265 1060,265 1060,485 200,485 200,595 260,595" fill="none" stroke="#1971c2" stroke-width="2" marker-end="url(#arrow-1971c2)"/><polyline points="150,65 925,65" fill="none" stroke="#e03131" stroke-width="2"/><polyline points="150,125 225,125 225,515 925,515" fill="none" stroke="#e03131" stroke-width="2"/><polyline points="325,65 325,230" fill="none" stroke="#e03131" stroke-width="2" marker-end="url(#arrow-e03131)"/><polyline points="325,515 325,560" fill="none" stroke="#e03131" stroke-width="2" marker-end="url(#arrow-e03131)"/><polyline points="525,65 525,230" fill="none" stroke="#e03131" stroke-width="2" marker-end="url(#arrow-e03131)"/><polyline points="525,515 525,560" fill="none" stroke="#e03131" stroke-width="2" marker-end="url(#arrow-e03131)"/><polyline points="725,65 725,230" fill="none" stroke="#e03131" stroke-width="2" marker-end="url(#arrow-e03131)"/><polyline points="725,515 725,560" fill="none" stroke="#e03131" stroke-width="2" marker-end="url(#arrow-e03131)"/><polyline points="925,65 925,230" fill="none" stroke="#e03131" stroke-width="2" marker-end="url(#arrow-e03131)"/><polyline points="925,515 925,560" fill="none" stroke="#e03131" stroke-width="2" marker-end="url(#arrow-e03131)"/><polyline points="65,885 110,885" fill="none" stroke="#1971c2" stroke-width="3"/><text x="120" y="887.7" font-size="13" fill="#1e1e1e">SDI (INPUT/THROUGH)</text><polyline points="308.2,885 353.2,885" fill="none" stroke="#e03131" stroke-width="3"/><text x="363.2" y="887.7" font-size="13" fill="#1e1e1e">POWER</text><polyline points="442.2,885 487.2,885" fill="none" stroke="#2f9e44" stroke-width="3"/><text x="497.2" y="887.7" font-size="13" fill="#1e1e1e">HDMI</text><rect x="568.4" y="871" width="34" height="28" rx="10" fill="#eebefa" stroke="#9c36b5" stroke-width="2"/><text x="612.4" y="887.7" font-size="13" fill="#1e1e1e">BLACKMAGIC SDI → HDMI CONVERTER</text><rect x="894.2" y="871" width="34" height="28" rx="10" fill="#a5d8ff" stroke="#1971c2" stroke-width="2"/><text x="938.2" y="887.7" font-size="13" fill="#1e1e1e">SDI SOURCE</text><rect x="1056.2" y="871" width="34" height="28" rx="10" fill="none" stroke="#1e1e1e" stroke-width="2"/><text x="1100.2" y="887.7" font-size="13" fill="#1e1e1e">DISPLAY</text><rect x="40" y="850" width="1144.8" height="70" rx="10" fill="none" stroke="#1e1e1e" stroke-width="2"/></svg>
