<svg xmlns="http://www.w3.org/2000/svg" viewBox="10 -20 1895 1070" font-family="Helvetica, Arial, sans-serif"><defs><marker id="arrow-1971c2" markerWidth="9" markerHeight="7" refX="8" refY="3.5" orient="auto"><path d="M0,0 L9,3.5 L0,7 Z" fill="#1971c2"/></marker><marker id="arrow-2f9e44" markerWidth="9" markerHeight="7" refX="8" refY="3.5" orient="auto"><path d="M0,0 L9,3.5 L0,7 Z" fill="#2f9e44"/></marker><marker id="arrow-e03131" markerWidth="9" markerHeight="7" refX="8" refY="3.5" orient="auto"><path d="M0,0 L9,3.5 L0,7 Z" fill="#e03131"/></marker></defs><rect x="10" y="-20" width="1895" height="1070" fill="#ffffff"/><text x="30" y="21.6" font-size="24" fill="#1e1e1e">PCAH Video Wall — SDI Distribution Amps (8 Displays)</text><text x="30" y="59.4" font-size="16" fill="#1e1e1e">POWER 1</text><ellipse cx="135" cy="55" rx="15" ry="15" fill="#ffc9c9" stroke="#e03131" stroke-width="2"/><text x="30" y="114.4" font-size="16" fill="#1e1e1e">POWER 2</text><ellipse cx="135" cy="110" rx="15" ry="15" fill="#ffc9c9" stroke="#e03131" stroke-width="2"/><rect x="40" y="175" width="150" height="60" rx="10" fill="#a5d8ff" stroke="#1971c2" stroke-width="2"/><text x="115" y="205" font-size="14" fill="#1971c2" text-anchor="middle" dominant-baseline="central">SDI SOURCE</text><rect x="245" y="180" width="760" height="50" rx="10" fill="#e9ecef" stroke="#495057" stroke-width="2"/><text x="625" y="205" font-size="14" fill="#495057" text-anchor="middle" dominant-baseline="central">SDI DISTRIBUTION AMP (1 IN → 4 OUT)</text><rect x="245" y="560" width="760" height="50" rx="10" fill="#e9ecef" stroke="#495057" stroke-width="2"/><text x="625" y="585" font-size="14" fill="#495057" text-anchor="middle" dominant-baseline="central">SDI DISTRIBUTION AMP (1 IN → 4 OUT)</text><polyline points="190,205 245,205" fill="none" stroke="#1971c2" stroke-width="2" marker-end="url(#arrow-1971c2)"/><polyline points="150,55 300,55 300,180" fill="none" stroke="#e03131" stroke-width="2" marker-end="url(#arrow-e03131)"/><polyline points="150,110 215,110 215,525 300,525 300,560" fill="none" stroke="#e03131" stroke-width="2" marker-end="url(#arrow-e03131)"/><polyline points="1005,205 1080,205 1080,500 200,500 200,585 245,585" fill="none" stroke="#1971c2" stroke-width="2" marker-end="url(#arrow-1971c2)"/><rect x="260" y="280" width="130" height="70" rx="10" fill="#eebefa" stroke="#9c36b5" stroke-width="2"/><text x="325" y="307.5" font-size="12" fill="#9c36b5" text-anchor="middle" dominant-baseline="central">BLACKMAGIC</text><text x="325" y="322.5" font-size="12" fill="#9c36b5" text-anchor="middle" dominant-baseline="central">SDI → HDMI</text><rect x="265" y="430" width="120" height="60" rx="10" fill="none" stroke="#1e1e1e" stroke-width="2"/><text x="325" y="460" font-size="16" fill="#1e1e1e" text-anchor="middle" dominant-baseline="central">TV 1</text><polyline points="325,350 325,430" fill="none" stroke="#2f9e44" stroke-width="2" marker-end="url(#arrow-2f9e44)"/><polyline points="325,230 325,280" fill="none" stroke="#1971c2" stroke-width="2" marker-end="url(#arrow-1971c2)"/><rect x="460" y="280" width="130" height="70" rx="10" fill="#eebefa" stroke="#9c36b5" stroke-width="2"/><text x="525" y="307.5" font-size="12" fill="#9c36b5" text-anchor="middle" dominant-baseline="central">BLACKMAGIC</text><text x="525" y="322.5" font-size="12" fill="#9c36b5" text-anchor="middle" dominant-baseline="central">SDI → HDMI</text><rect x="465" y="430" width="120" height="60" rx="10" fill="none" stroke="#1e1e1e" stroke-width="2"/><text x="525" y="460" font-size="16" fill="#1e1e1e" text-anchor="middle" dominant-baseline="central">TV 2</text><polyline points="525,350 525,430" fill="none" stroke="#2f9e44" stroke-width="2" marker-end="url(#arrow-2f9e44)"/><polyline points="525,230 525,280" fill="none" stroke="#1971c2" stroke-width="2" marker-end="url(#arrow-1971c2)"/><rect x="660" y="280" width="130" height="70" rx="10" fill="#eebefa" stroke="#9c36b5" stroke-width="2"/><text x="725" y="307.5" font-size="12" fill="#9c36b5" text-anchor="middle" dominant-baseline="central">BLACKMAGIC</text><text x="725" y="322.5" font-size="12" fill="#9c36b5" text-anchor="middle" dominant-baseline="central">SDI → HDMI</text><rect x="665" y="430" width="120" height="60" rx="10" fill="none" stroke="#1e1e1e" stroke-width="2"/><text x="725" y="460" font-size="16" fill="#1e1e1e" text-anchor="middle" dominant-baseline="central">TV 3</text><polyline points="725,350 725,430" fill="none" stroke="#2f9e44" stroke-width="2" marker-end="url(#arrow-2f9e44)"/><polyline points="725,230 725,280" fill="none" stroke="#1971c2" stroke-width="2" marker-end="url(#arrow-1971c2)"/><rect x="860" y="280" width="130" height="70" rx="10" fill="#eebefa" stroke="#9c36b5" stroke-width="2"/><text x="925" y="307.5" font-size="12" fill="#9c36b5" text-anchor="middle" dominant-baseline="central">BLACKMAGIC</text><text x="925" y="322.5" font-size="12" fill="#9c36b5" text-anchor="middle" dominant-baseline="central">SDI → HDMI</text><rect x="865" y="430" width="120" height="60" rx="10" fill="none" stroke="#1e1e1e" stroke-width="2"/><text x="925" y="460" font-size="16" fill="#1e1e1e" text-anchor="middle" dominant-baseline="central">TV 4</text><polyline points="925,350 925,430" fill="none" stroke="#2f9e44" stroke-width="2" marker-end="url(#arrow-2f9e44)"/><polyline points="925,230 925,280" fill="none" stroke="#1971c2" stroke-width="2" marker-end="url(#arrow-1971c2)"/><rect x="260" y="680" width="130" height="70" rx="10" fill="#eebefa" stroke="#9c36b5" stroke-width="2"/><text x="325" y="707.5" font-size="12" fill="#9c36b5" text-anchor="middle" dominant-baseline="central">BLACKMAGIC</text><text x="325" y="722.5" font-size="12" fill="#9c36b5" text-anchor="middle" dominant-baseline="central">SDI → HDMI</text><rect x="265" y="830" width="120" height="60" rx="10" fill="none" stroke="#1e1e1e" stroke-width="2"/><text x="325" y="860" font-size="16" fill="#1e1e1e" text-anchor="middle" dominant-baseline="central">TV 5</text><polyline points="325,750 325,830" fill="none" stroke="#2f9e44" stroke-width="2" marker-end="url(#arrow-2f9e44)"/><polyline points="325,610 325,680" fill="none" stroke="#1971c2" stroke-width="2" marker-end="url(#arrow-1971c2)"/><rect x="460" y="680" width="130" height="70" rx="10" fill="#eebefa" stroke="#9c36b5" stroke-width="2"/><text x="525" y="707.5" font-size="12" fill="#9c36b5" text-anchor="middle" dominant-baseline="central">BLACKMAGIC</text><text x="525" y="722.5" font-size="12" fill="#9c36b5" text-anchor="middle" dominant-baseline="central">SDI → HDMI</text><rect x="465" y="830" width="120" height="60" rx="10" fill="none" stroke="#1e1e1e" stroke-width="2"/><text x="525" y="860" font-size="16" fill="#1e1e1e" text-anchor="middle" dominant-baseline="central">TV 6</text><polyline points="525,750 525,830" fill="none" stroke="#2f9e44" stroke-width="2" marker-end="url(#arrow-2f9e44)"/><polyline points="525,610 525,680" fill="none" stroke="#1971c2" stroke-width="2" marker-end="url(#arrow-1971c2)"/><rect x="660" y="680" width="130" height="70" rx="10" fill="#eebefa" stroke="#9c36b5" stroke-width="2"/><text x="725" y="707.5" font-size="12" fill="#9c36b5" text-anchor="middle" dominant-baseline="central">BLACKMAGIC</text><text x="725" y="722.5" font-size="12" fill="#9c36b5" text-anchor="middle" dominant-baseline="central">SDI → HDMI</text><rect x="665" y="830" width="120" height="60" rx="10" fill="none" stroke="#1e1e1e" stroke-width="2"/><text x="725" y="860" font-size="16" fill="#1e1e1e" text-anchor="middle" dominant-baseline="central">TV 7</text><polyline points="725,750 725,830" fill="none" stroke="#2f9e44" stroke-width="2" marker-end="url(#arrow-2f9e44)"/><polyline points="725,610 725,680" fill="none" stroke="#1971c2" stroke-width="2" marker-end="url(#arrow-1971c2)"/><rect x="860" y="680" width="130" height="70" rx="10" fill="#eebefa" stroke="#9c36b5" stroke-width="2"/><text x="925" y="707.5" font-size="12" fill="#9c36b5" text-anchor="middle" dominant-baseline="central">BLACKMAGIC</text><text x="925" y="722.5" font-size="12" fill="#9c36b5" text-anchor="middle" dominant-baseline="central">SDI → HDMI</text><rect x="865" y="830" width="120" height="60" rx="10" fill="none" stroke="#1e1e1e" stroke-width="2"/><text x="925" y="860" font-size="16" fill="#1e1e1e" text-anchor="middle" dominant-baseline="central">TV 8</text><polyline points="925,750 925,830" fill="none" stroke="#2f9e44" stroke-width="2" marker-end="url(#arrow-2f9e44)"/><polyline points="925,610 925,680" fill="none" stroke="#1971c2" stroke-width="2" marker-end="url(#arrow-1971c2)"/><text x="245" y="931.7" font-size="13" fill="#495057">Converter power feeds not shown here — see 01-power-distribution.</text><polyline points="65,995 110,995" fill="none" stroke="#1971c2" stroke-width="3"/><text x="120" y="997.7" font-size="13" fill="#1e1e1e">SDI</text><polyline points="183.4,995 228.4,995" fill="none" stroke="#e03131" stroke-width="3"/><text x="238.4" y="997.7" font-size="13" fill="#1e1e1e">POWER</text><polyline points="317.4,995 362.4,995" fill="none" stroke="#2f9e44" stroke-width="3"/><text x="372.4" y="997.7" font-size="13" fill="#1e1e1e">HDMI</text><rect x="443.6" y="981" width="34" height="28" rx="10" fill="#eebefa" stroke="#9c36b5" stroke-width="2"/><text x="487.6" y="997.7" font-size="13" fill="#1e1e1e">BLACKMAGIC SDI → HDMI CONVERTER</text><rect x="769.4" y="981" width="34" height="28" rx="10" fill="#e9ecef" stroke="#495057" stroke-width="2"/><text x="813.4" y="997.7" font-size="13" fill="#1e1e1e">SDI DISTRIBUTION AMP</text><rect x="1009.4" y="981" width="34" height="28" rx="10" fill="none" stroke="#1e1e1e" stroke-width="2"/><text x="1053.4" y="997.7" font-size="13" fill="#1e1e1e">DISPLAY</text><rect x="40" y="960" width="1098" height="70" rx="10" fill="none" stroke="#1e1e1e" stroke-width="2"/></svg>
