<svg xmlns="http://www.w3.org/2000/svg" viewBox="-15 -10 2595 1060" font-family="Helvetica, Arial, sans-serif"><defs><marker id="arrow-1971c2" markerWidth="9" markerHeight="7" refX="8" refY="3.5" orient="auto"><path d="M0,0 L9,3.5 L0,7 Z" fill="#1971c2"/></marker><marker id="arrow-2f9e44" markerWidth="9" markerHeight="7" refX="8" refY="3.5" orient="auto"><path d="M0,0 L9,3.5 L0,7 Z" fill="#2f9e44"/></marker><marker id="arrow-e03131" markerWidth="9" markerHeight="7" refX="8" refY="3.5" orient="auto"><path d="M0,0 L9,3.5 L0,7 Z" fill="#e03131"/></marker><marker id="arrow-f08c00" markerWidth="9" markerHeight="7" refX="8" refY="3.5" orient="auto"><path d="M0,0 L9,3.5 L0,7 Z" fill="#f08c00"/></marker></defs><rect x="-15" y="-10" width="2595" height="1060" fill="#ffffff"/><text x="30" y="31.6" font-size="24" fill="#1e1e1e">PCAH Video Wall — Full System: Power + SDI Signal (10 Displays)</text><text x="30" y="109.4" font-size="16" fill="#1e1e1e">POWER 1</text><ellipse cx="135" cy="105" rx="15" ry="15" fill="#ffc9c9" stroke="#e03131" stroke-width="2"/><rect x="270" y="80" width="440" height="50" rx="10" fill="#e9ecef" stroke="#495057" stroke-width="2"/><text x="490" y="105" font-size="14" fill="#495057" text-anchor="middle" dominant-baseline="central">8-WAY POWER SPLITTER</text><rect x="930" y="80" width="440" height="50" rx="10" fill="#e9ecef" stroke="#495057" stroke-width="2"/><text x="1150" y="105" font-size="14" fill="#495057" text-anchor="middle" dominant-baseline="central">8-WAY POWER SPLITTER</text><polyline points="150,105 270,105" fill="none" stroke="#e03131" stroke-width="2" marker-end="url(#arrow-e03131)"/><polyline points="710,105 930,105" fill="none" stroke="#e03131" stroke-width="2" marker-end="url(#arrow-e03131)"/><text x="30" y="579.4" font-size="16" fill="#1e1e1e">POWER 2</text><ellipse cx="135" cy="575" rx="15" ry="15" fill="#ffc9c9" stroke="#e03131" stroke-width="2"/><rect x="270" y="550" width="600" height="50" rx="10" fill="#e9ecef" stroke="#495057" stroke-width="2"/><text x="570" y="575" font-size="14" fill="#495057" text-anchor="middle" dominant-baseline="central">8-WAY POWER SPLITTER</text><polyline points="150,575 270,575" fill="none" stroke="#e03131" stroke-width="2" marker-end="url(#arrow-e03131)"/><rect x="140" y="210" width="130" height="70" rx="10" fill="#eebefa" stroke="#9c36b5" stroke-width="2"/><text x="205" y="237.5" font-size="12" fill="#9c36b5" text-anchor="middle" dominant-baseline="central">BLACKMAGIC</text><text x="205" y="252.5" font-size="12" fill="#9c36b5" text-anchor="middle" dominant-baseline="central">SDI → HDMI</text><rect x="145" y="360" width="120" height="60" rx="10" fill="none" stroke="#1e1e1e" stroke-width="2"/><text x="205" y="390" font-size="16" fill="#1e1e1e" text-anchor="middle" dominant-baseline="central">TV 1</text><polyline points="180,280 180,360" fill="none" stroke="#2f9e44" stroke-width="2" marker-end="url(#arrow-2f9e44)"/><polyline points="230,360 230,280" fill="none" stroke="#f08c00" stroke-width="2" marker-end="url(#arrow-f08c00)"/><polyline points="300,130 300,390 265,390" fill="none" stroke="#e03131" stroke-width="2" marker-end="url(#arrow-e03131)"/><rect x="320" y="210" width="130" height="70" rx="10" fill="#eebefa" stroke="#9c36b5" stroke-width="2"/><text x="385" y="237.5" font-size="12" fill="#9c36b5" text-anchor="middle" dominant-baseline="central">BLACKMAGIC</text><text x="385" y="252.5" font-size="12" fill="#9c36b5" text-anchor="middle" dominant-baseline="central">SDI → HDMI</text><rect x="325" y="360" width="120" height="60" rx="10" fill="none" stroke="#1e1e1e" stroke-width="2"/><text x="385" y="390" font-size="16" fill="#1e1e1e" text-anchor="middle" dominant-baseline="central">TV 2</text><polyline points="360,280 360,360" fill="none" stroke="#2f9e44" stroke-width="2" marker-end="url(#arrow-2f9e44)"/><polyline points="410,360 410,280" fill="none" stroke="#f08c00" stroke-width="2" marker-end="url(#arrow-f08c00)"/><polyline points="480,130 480,390 445,390" fill="none" stroke="#e03131" stroke-width="2" marker-end="url(#arrow-e03131)"/><rect x="500" y="210" width="130" height="70" rx="10" fill="#eebefa" stroke="#9c36b5" stroke-width="2"/><text x="565" y="237.5" font-size="12" fill="#9c36b5" text-anchor="middle" dominant-baseline="central">BLACKMAGIC</text><text x="565" y="252.5" font-size="12" fill="#9c36b5" text-anchor="middle" dominant-baseline="central">SDI → HDMI</text><rect x="505" y="360" width="120" height="60" rx="10" fill="none" stroke="#1e1e1e" stroke-width="2"/><text x="565" y="390" font-size="16" fill="#1e1e1e" text-anchor="middle" dominant-baseline="central">TV 3</text><polyline points="540,280 540,360" fill="none" stroke="#2f9e44" stroke-width="2" marker-end="url(#arrow-2f9e44)"/><polyline points="590,360 590,280" fill="none" stroke="#f08c00" stroke-width="2" marker-end="url(#arrow-f08c00)"/><polyline points="660,130 660,390 625,390" fill="none" stroke="#e03131" stroke-width="2" marker-end="url(#arrow-e03131)"/><rect x="800" y="210" width="130" height="70" rx="10" fill="#eebefa" stroke="#9c36b5" stroke-width="2"/><text x="865" y="237.5" font-size="12" fill="#9c36b5" text-anchor="middle" dominant-baseline="central">BLACKMAGIC</text><text x="865" y="252.5" font-size="12" fill="#9c36b5" text-anchor="middle" dominant-baseline="central">SDI → HDMI</text><rect x="805" y="360" width="120" height="60" rx="10" fill="none" stroke="#1e1e1e" stroke-width="2"/><text x="865" y="390" font-size="16" fill="#1e1e1e" text-anchor="middle" dominant-baseline="central">TV 4</text><polyline points="840,280 840,360" fill="none" stroke="#2f9e44" stroke-width="2" marker-end="url(#arrow-2f9e44)"/><polyline points="890,360 890,280" fill="none" stroke="#f08c00" stroke-width="2" marker-end="url(#arrow-f08c00)"/><polyline points="960,130 960,390 925,390" fill="none" stroke="#e03131" stroke-width="2" marker-end="url(#arrow-e03131)"/><rect x="980" y="210" width="130" height="70" rx="10" fill="#eebefa" stroke="#9c36b5" stroke-width="2"/><text x="1045" y="237.5" font-size="12" fill="#9c36b5" text-anchor="middle" dominant-baseline="central">BLACKMAGIC</text><text x="1045" y="252.5" font-size="12" fill="#9c36b5" text-anchor="middle" dominant-baseline="central">SDI → HDMI</text><rect x="985" y="360" width="120" height="60" rx="10" fill="none" stroke="#1e1e1e" stroke-width="2"/><text x="1045" y="390" font-size="16" fill="#1e1e1e" text-anchor="middle" dominant-baseline="central">TV 5</text><polyline points="1020,280 1020,360" fill="none" stroke="#2f9e44" stroke-width="2" marker-end="url(#arrow-2f9e44)"/><polyline points="1070,360 1070,280" fill="none" stroke="#f08c00" stroke-width="2" marker-end="url(#arrow-f08c00)"/><polyline points="1140,130 1140,390 1105,390" fill="none" stroke="#e03131" stroke-width="2" marker-end="url(#arrow-e03131)"/><rect x="1160" y="210" width="130" height="70" rx="10" fill="#eebefa" stroke="#9c36b5" stroke-width="2"/><text x="1225" y="237.5" font-size="12" fill="#9c36b5" text-anchor="middle" dominant-baseline="central">BLACKMAGIC</text><text x="1225" y="252.5" font-size="12" fill="#9c36b5" text-anchor="middle" dominant-baseline="central">SDI → HDMI</text><rect x="1165" y="360" width="120" height="60" rx="10" fill="none" stroke="#1e1e1e" stroke-width="2"/><text x="1225" y="390" font-size="16" fill="#1e1e1e" text-anchor="middle" dominant-baseline="central">TV 6</text><polyline points="1200,280 1200,360" fill="none" stroke="#2f9e44" stroke-width="2" marker-end="url(#arrow-2f9e44)"/><polyline points="1250,360 1250,280" fill="none" stroke="#f08c00" stroke-width="2" marker-end="url(#arrow-f08c00)"/><polyline points="1320,130 1320,390 1285,390" fill="none" stroke="#e03131" stroke-width="2" marker-end="url(#arrow-e03131)"/><rect x="140" y="680" width="130" height="70" rx="10" fill="#eebefa" stroke="#9c36b5" stroke-width="2"/><text x="205" y="707.5" font-size="12" fill="#9c36b5" text-anchor="middle" dominant-baseline="central">BLACKMAGIC</text><text x="205" y="722.5" font-size="12" fill="#9c36b5" text-anchor="middle" dominant-baseline="central">SDI → HDMI</text><rect x="145" y="830" width="120" height="60" rx="10" fill="none" stroke="#1e1e1e" stroke-width="2"/><text x="205" y="860" font-size="16" fill="#1e1e1e" text-anchor="middle" dominant-baseline="central">TV 7</text><polyline points="180,750 180,830" fill="none" stroke="#2f9e44" stroke-width="2" marker-end="url(#arrow-2f9e44)"/><polyline points="230,830 230,750" fill="none" stroke="#f08c00" stroke-width="2" marker-end="url(#arrow-f08c00)"/><polyline points="300,600 300,860 265,860" fill="none" stroke="#e03131" stroke-width="2" marker-end="url(#arrow-e03131)"/><rect x="320" y="680" width="130" height="70" rx="10" fill="#eebefa" stroke="#9c36b5" stroke-width="2"/><text x="385" y="707.5" font-size="12" fill="#9c36b5" text-anchor="middle" dominant-baseline="central">BLACKMAGIC</text><text x="385" y="722.5" font-size="12" fill="#9c36b5" text-anchor="middle" dominant-baseline="central">SDI → HDMI</text><rect x="325" y="830" width="120" height="60" rx="10" fill="none" stroke="#1e1e1e" stroke-width="2"/><text x="385" y="860" font-size="16" fill="#1e1e1e" text-anchor="middle" dominant-baseline="central">TV 8</text><polyline points="360,750 360,830" fill="none" stroke="#2f9e44" stroke-width="2" marker-end="url(#arrow-2f9e44)"/><polyline points="410,830 410,750" fill="none" stroke="#f08c00" stroke-width="2" marker-end="url(#arrow-f08c00)"/><polyline points="480,600 480,860 445,860" fill="none" stroke="#e03131" stroke-width="2" marker-end="url(#arrow-e03131)"/><rect x="500" y="680" width="130" height="70" rx="10" fill="#eebefa" stroke="#9c36b5" stroke-width="2"/><text x="565" y="707.5" font-size="12" fill="#9c36b5" text-anchor="middle" dominant-baseline="central">BLACKMAGIC</text><text x="565" y="722.5" font-size="12" fill="#9c36b5" text-anchor="middle" dominant-baseline="central">SDI → HDMI</text><rect x="505" y="830" width="120" height="60" rx="10" fill="none" stroke="#1e1e1e" stroke-width="2"/><text x="565" y="860" font-size="16" fill="#1e1e1e" text-anchor="middle" dominant-baseline="central">TV 9</text><polyline points="540,750 540,830" fill="none" stroke="#2f9e44" stroke-width="2" marker-end="url(#arrow-2f9e44)"/><polyline points="590,830 590,750" fill="none" stroke="#f08c00" stroke-width="2" marker-end="url(#arrow-f08c00)"/><polyline points="660,600 660,860 625,860" fill="none" stroke="#e03131" stroke-width="2" marker-end="url(#arrow-e03131)"/><rect x="680" y="680" width="130" height="70" rx="10" fill="#eebefa" stroke="#9c36b5" stroke-width="2"/><text x="745" y="707.5" font-size="12" fill="#9c36b5" text-anchor="middle" dominant-baseline="central">BLACKMAGIC</text><text x="745" y="722.5" font-size="12" fill="#9c36b5" text-anchor="middle" dominant-baseline="central">SDI → HDMI</text><rect x="685" y="830" width="120" height="60" rx="10" fill="none" stroke="#1e1e1e" stroke-width="2"/><text x="745" y="860" font-size="16" fill="#1e1e1e" text-anchor="middle" dominant-baseline="central">TV 10</text><polyline points="720,750 720,830" fill="none" stroke="#2f9e44" stroke-width="2" marker-end="url(#arrow-2f9e44)"/><polyline points="770,830 770,750" fill="none" stroke="#f08c00" stroke-width="2" marker-end="url(#arrow-f08c00)"/><polyline points="840,600 840,860 805,860" fill="none" stroke="#e03131" stroke-width="2" marker-end="url(#arrow-e03131)"/><rect x="5" y="215" width="110" height="60" rx="10" fill="#a5d8ff" stroke="#1971c2" stroke-width="2"/><text x="60" y="245" font-size="12" fill="#1971c2" text-anchor="middle" dominant-baseline="central">SDI SOURCE</text><polyline points="115,245 140,245" fill="none" stroke="#1971c2" stroke-width="2" marker-end="url(#arrow-1971c2)"/><polyline points="270,245 320,245" fill="none" stroke="#1971c2" stroke-width="2" marker-end="url(#arrow-1971c2)"/><polyline points="450,245 500,245" fill="none" stroke="#1971c2" stroke-width="2" marker-end="url(#arrow-1971c2)"/><polyline points="630,245 800,245" fill="none" stroke="#1971c2" stroke-width="2" marker-end="url(#arrow-1971c2)"/><polyline points="930,245 980,245" fill="none" stroke="#1971c2" stroke-width="2" marker-end="url(#arrow-1971c2)"/><polyline points="1110,245 1160,245" fill="none" stroke="#1971c2" stroke-width="2" marker-end="url(#arrow-1971c2)"/><polyline points="270,715 320,715" fill="none" stroke="#1971c2" stroke-width="2" marker-end="url(#arrow-1971c2)"/><polyline points="450,715 500,715" fill="none" stroke="#1971c2" stroke-width="2" marker-end="url(#arrow-1971c2)"/><polyline points="630,715 680,715" fill="none" stroke="#1971c2" stroke-width="2" marker-end="url(#arrow-1971c2)"/><polyline points="1290,245 1350,245 1350,630 80,630 80,715 140,715" fill="none" stroke="#1971c2" stroke-width="2" marker-end="url(#arrow-1971c2)"/><polyline points="65,995 110,995" fill="none" stroke="#1971c2" stroke-width="3"/><text x="120" y="997.7" font-size="13" fill="#1e1e1e">SDI DAISY CHAIN</text><polyline points="277,995 322,995" fill="none" stroke="#e03131" stroke-width="3"/><text x="332" y="997.7" font-size="13" fill="#1e1e1e">POWER</text><polyline points="411,995 456,995" fill="none" stroke="#2f9e44" stroke-width="3"/><text x="466" y="997.7" font-size="13" fill="#1e1e1e">HDMI</text><polyline points="537.2,995 582.2,995" fill="none" stroke="#f08c00" stroke-width="3"/><text x="592.2" y="997.7" font-size="13" fill="#1e1e1e">USB-A → USB-C (CONVERTER POWER FROM TV)</text><rect x="936.4" y="981" width="34" height="28" rx="10" fill="#eebefa" stroke="#9c36b5" stroke-width="2"/><text x="980.4" y="997.7" font-size="13" fill="#1e1e1e">BLACKMAGIC SDI → HDMI CONVERTER</text><rect x="1262.2" y="981" width="34" height="28" rx="10" fill="#e9ecef" stroke="#495057" stroke-width="2"/><text x="1306.2" y="997.7" font-size="13" fill="#1e1e1e">8-WAY POWER SPLITTER</text><rect x="40" y="960" width="1452.2" height="70" rx="10" fill="none" stroke="#1e1e1e" stroke-width="2"/></svg>
