<svg xmlns="http://www.w3.org/2000/svg" viewBox="-15 -10 1865 1160" font-family="Helvetica, Arial, sans-serif"><defs><marker id="arrow-1971c2" markerWidth="9" markerHeight="7" refX="8" refY="3.5" orient="auto"><path d="M0,0 L9,3.5 L0,7 Z" fill="#1971c2"/></marker><marker id="arrow-2f9e44" markerWidth="9" markerHeight="7" refX="8" refY="3.5" orient="auto"><path d="M0,0 L9,3.5 L0,7 Z" fill="#2f9e44"/></marker><marker id="arrow-e03131" markerWidth="9" markerHeight="7" refX="8" refY="3.5" orient="auto"><path d="M0,0 L9,3.5 L0,7 Z" fill="#e03131"/></marker></defs><rect x="-15" y="-10" width="1865" height="1160" fill="#ffffff"/><text x="30" y="31.6" font-size="24" fill="#1e1e1e">PCAH Video Wall — Power + SDI Signal (10 Displays)</text><rect x="140" y="210" width="130" height="70" rx="10" fill="#eebefa" stroke="#9c36b5" stroke-width="2"/><text x="205" y="237.5" font-size="12" fill="#9c36b5" text-anchor="middle" dominant-baseline="central">BLACKMAGIC</text><text x="205" y="252.5" font-size="12" fill="#9c36b5" text-anchor="middle" dominant-baseline="central">SDI → HDMI</text><rect x="145" y="360" width="120" height="60" rx="10" fill="none" stroke="#1e1e1e" stroke-width="2"/><text x="205" y="390" font-size="16" fill="#1e1e1e" text-anchor="middle" dominant-baseline="central">TV 1</text><polyline points="205,360 205,280" fill="none" stroke="#2f9e44" stroke-width="2" marker-end="url(#arrow-2f9e44)"/><rect x="320" y="210" width="130" height="70" rx="10" fill="#eebefa" stroke="#9c36b5" stroke-width="2"/><text x="385" y="237.5" font-size="12" fill="#9c36b5" text-anchor="middle" dominant-baseline="central">BLACKMAGIC</text><text x="385" y="252.5" font-size="12" fill="#9c36b5" text-anchor="middle" dominant-baseline="central">SDI → HDMI</text><rect x="325" y="360" width="120" height="60" rx="10" fill="none" stroke="#1e1e1e" stroke-width="2"/><text x="385" y="390" font-size="16" fill="#1e1e1e" text-anchor="middle" dominant-baseline="central">TV 2</text><polyline points="385,360 385,280" fill="none" stroke="#2f9e44" stroke-width="2" marker-end="url(#arrow-2f9e44)"/><rect x="500" y="210" width="130" height="70" rx="10" fill="#eebefa" stroke="#9c36b5" stroke-width="2"/><text x="565" y="237.5" font-size="12" fill="#9c36b5" text-anchor="middle" dominant-baseline="central">BLACKMAGIC</text><text x="565" y="252.5" font-size="12" fill="#9c36b5" text-anchor="middle" dominant-baseline="central">SDI → HDMI</text><rect x="505" y="360" width="120" height="60" rx="10" fill="none" stroke="#1e1e1e" stroke-width="2"/><text x="565" y="390" font-size="16" fill="#1e1e1e" text-anchor="middle" dominant-baseline="central">TV 3</text><polyline points="565,360 565,280" fill="none" stroke="#2f9e44" stroke-width="2" marker-end="url(#arrow-2f9e44)"/><rect x="800" y="210" width="130" height="70" rx="10" fill="#eebefa" stroke="#9c36b5" stroke-width="2"/><text x="865" y="237.5" font-size="12" fill="#9c36b5" text-anchor="middle" dominant-baseline="central">BLACKMAGIC</text><text x="865" y="252.5" font-size="12" fill="#9c36b5" text-anchor="middle" dominant-baseline="central">SDI → HDMI</text><rect x="805" y="360" width="120" height="60" rx="10" fill="none" stroke="#1e1e1e" stroke-width="2"/><text x="865" y="390" font-size="16" fill="#1e1e1e" text-anchor="middle" dominant-baseline="central">TV 4</text><polyline points="865,360 865,280" fill="none" stroke="#2f9e44" stroke-width="2" marker-end="url(#arrow-2f9e44)"/><rect x="980" y="210" width="130" height="70" rx="10" fill="#eebefa" stroke="#9c36b5" stroke-width="2"/><text x="1045" y="237.5" font-size="12" fill="#9c36b5" text-anchor="middle" dominant-baseline="central">BLACKMAGIC</text><text x="1045" y="252.5" font-size="12" fill="#9c36b5" text-anchor="middle" dominant-baseline="central">SDI → HDMI</text><rect x="985" y="360" width="120" height="60" rx="10" fill="none" stroke="#1e1e1e" stroke-width="2"/><text x="1045" y="390" font-size="16" fill="#1e1e1e" text-anchor="middle" dominant-baseline="central">TV 5</text><polyline points="1045,360 1045,280" fill="none" stroke="#2f9e44" stroke-width="2" marker-end="url(#arrow-2f9e44)"/><rect x="1160" y="210" width="130" height="70" rx="10" fill="#eebefa" stroke="#9c36b5" stroke-width="2"/><text x="1225" y="237.5" font-size="12" fill="#9c36b5" text-anchor="middle" dominant-baseline="central">BLACKMAGIC</text><text x="1225" y="252.5" font-size="12" fill="#9c36b5" text-anchor="middle" dominant-baseline="central">SDI → HDMI</text><rect x="1165" y="360" width="120" height="60" rx="10" fill="none" stroke="#1e1e1e" stroke-width="2"/><text x="1225" y="390" font-size="16" fill="#1e1e1e" text-anchor="middle" dominant-baseline="central">TV 6</text><polyline points="1225,360 1225,280" fill="none" stroke="#2f9e44" stroke-width="2" marker-end="url(#arrow-2f9e44)"/><rect x="140" y="680" width="130" height="70" rx="10" fill="#eebefa" stroke="#9c36b5" stroke-width="2"/><text x="205" y="707.5" font-size="12" fill="#9c36b5" text-anchor="middle" dominant-baseline="central">BLACKMAGIC</text><text x="205" y="722.5" font-size="12" fill="#9c36b5" text-anchor="middle" dominant-baseline="central">SDI → HDMI</text><rect x="145" y="830" width="120" height="60" rx="10" fill="none" stroke="#1e1e1e" stroke-width="2"/><text x="205" y="860" font-size="16" fill="#1e1e1e" text-anchor="middle" dominant-baseline="central">TV 7</text><polyline points="205,830 205,750" fill="none" stroke="#2f9e44" stroke-width="2" marker-end="url(#arrow-2f9e44)"/><rect x="320" y="680" width="130" height="70" rx="10" fill="#eebefa" stroke="#9c36b5" stroke-width="2"/><text x="385" y="707.5" font-size="12" fill="#9c36b5" text-anchor="middle" dominant-baseline="central">BLACKMAGIC</text><text x="385" y="722.5" font-size="12" fill="#9c36b5" text-anchor="middle" dominant-baseline="central">SDI → HDMI</text><rect x="325" y="830" width="120" height="60" rx="10" fill="none" stroke="#1e1e1e" stroke-width="2"/><text x="385" y="860" font-size="16" fill="#1e1e1e" text-anchor="middle" dominant-baseline="central">TV 8</text><polyline points="385,830 385,750" fill="none" stroke="#2f9e44" stroke-width="2" marker-end="url(#arrow-2f9e44)"/><rect x="500" y="680" width="130" height="70" rx="10" fill="#eebefa" stroke="#9c36b5" stroke-width="2"/><text x="565" y="707.5" font-size="12" fill="#9c36b5" text-anchor="middle" dominant-baseline="central">BLACKMAGIC</text><text x="565" y="722.5" font-size="12" fill="#9c36b5" text-anchor="middle" dominant-baseline="central">SDI → HDMI</text><rect x="505" y="830" width="120" height="60" rx="10" fill="none" stroke="#1e1e1e" stroke-width="2"/><text x="565" y="860" font-size="16" fill="#1e1e1e" text-anchor="middle" dominant-baseline="central">TV 9</text><polyline points="565,830 565,750" fill="none" stroke="#2f9e44" stroke-width="2" marker-end="url(#arrow-2f9e44)"/><rect x="680" y="680" width="130" height="70" rx="10" fill="#eebefa" stroke="#9c36b5" stroke-width="2"/><text x="745" y="707.5" font-size="12" fill="#9c36b5" text-anchor="middle" dominant-baseline="central">BLACKMAGIC</text><text x="745" y="722.5" font-size="12" fill="#9c36b5" text-anchor="middle" dominant-baseline="central">SDI → HDMI</text><rect x="685" y="830" width="120" height="60" rx="10" fill="none" stroke="#1e1e1e" stroke-width="2"/><text x="745" y="860" font-size="16" fill="#1e1e1e" text-anchor="middle" dominant-baseline="central">TV 10</text><polyline points="745,830 745,750" fill="none" stroke="#2f9e44" stroke-width="2" marker-end="url(#arrow-2f9e44)"/><text x="30" y="499.4" font-size="16" fill="#1e1e1e">POWER 1</text><ellipse cx="135" cy="495" rx="15" ry="15" fill="#ffc9c9" stroke="#e03131" stroke-width="2"/><rect x="175" y="470" width="420" height="50" rx="10" fill="#e9ecef" stroke="#495057" stroke-width="2"/><text x="385" y="495" font-size="14" fill="#495057" text-anchor="middle" dominant-baseline="central">8-WAY POWER SPLITTER</text><rect x="835" y="470" width="420" height="50" rx="10" fill="#e9ecef" stroke="#495057" stroke-width="2"/><text x="1045" y="495" font-size="14" fill="#495057" text-anchor="middle" dominant-baseline="central">8-WAY POWER SPLITTER</text><polyline points="150,495 175,495" fill="none" stroke="#e03131" stroke-width="2" marker-end="url(#arrow-e03131)"/><polyline points="595,495 835,495" fill="none" stroke="#e03131" stroke-width="2" marker-end="url(#arrow-e03131)"/><text x="30" y="969.4" font-size="16" fill="#1e1e1e">POWER 2</text><ellipse cx="135" cy="965" rx="15" ry="15" fill="#ffc9c9" stroke="#e03131" stroke-width="2"/><rect x="175" y="940" width="600" height="50" rx="10" fill="#e9ecef" stroke="#495057" stroke-width="2"/><text x="475" y="965" font-size="14" fill="#495057" text-anchor="middle" dominant-baseline="central">8-WAY POWER SPLITTER</text><polyline points="150,965 175,965" fill="none" stroke="#e03131" stroke-width="2" marker-end="url(#arrow-e03131)"/><polyline points="205,470 205,420" fill="none" stroke="#e03131" stroke-width="2" marker-end="url(#arrow-e03131)"/><polyline points="385,470 385,420" fill="none" stroke="#e03131" stroke-width="2" marker-end="url(#arrow-e03131)"/><polyline points="565,470 565,420" fill="none" stroke="#e03131" stroke-width="2" marker-end="url(#arrow-e03131)"/><polyline points="865,470 865,420" fill="none" stroke="#e03131" stroke-width="2" marker-end="url(#arrow-e03131)"/><polyline points="1045,470 1045,420" fill="none" stroke="#e03131" stroke-width="2" marker-end="url(#arrow-e03131)"/><polyline points="1225,470 1225,420" fill="none" stroke="#e03131" stroke-width="2" marker-end="url(#arrow-e03131)"/><polyline points="205,940 205,890" fill="none" stroke="#e03131" stroke-width="2" marker-end="url(#arrow-e03131)"/><polyline points="385,940 385,890" fill="none" stroke="#e03131" stroke-width="2" marker-end="url(#arrow-e03131)"/><polyline points="565,940 565,890" fill="none" stroke="#e03131" stroke-width="2" marker-end="url(#arrow-e03131)"/><polyline points="745,940 745,890" fill="none" stroke="#e03131" stroke-width="2" marker-end="url(#arrow-e03131)"/><rect x="5" y="215" width="110" height="60" rx="10" fill="#a5d8ff" stroke="#1971c2" stroke-width="2"/><text x="60" y="245" font-size="12" fill="#1971c2" text-anchor="middle" dominant-baseline="central">SDI SOURCE</text><polyline points="115,245 140,245" fill="none" stroke="#1971c2" stroke-width="2" marker-end="url(#arrow-1971c2)"/><polyline points="270,245 320,245" fill="none" stroke="#1971c2" stroke-width="2" marker-end="url(#arrow-1971c2)"/><polyline points="450,245 500,245" fill="none" stroke="#1971c2" stroke-width="2" marker-end="url(#arrow-1971c2)"/><polyline points="630,245 800,245" fill="none" stroke="#1971c2" stroke-width="2" marker-end="url(#arrow-1971c2)"/><polyline points="930,245 980,245" fill="none" stroke="#1971c2" stroke-width="2" marker-end="url(#arrow-1971c2)"/><polyline points="1110,245 1160,245" fill="none" stroke="#1971c2" stroke-width="2" marker-end="url(#arrow-1971c2)"/><polyline points="1290,245 1350,245 1350,715 810,715" fill="none" stroke="#1971c2" stroke-width="2" marker-end="url(#arrow-1971c2)"/><polyline points="680,715 630,715" fill="none" stroke="#1971c2" stroke-width="2" marker-end="url(#arrow-1971c2)"/><polyline points="500,715 450,715" fill="none" stroke="#1971c2" stroke-width="2" marker-end="url(#arrow-1971c2)"/><polyline points="320,715 270,715" fill="none" stroke="#1971c2" stroke-width="2" marker-end="url(#arrow-1971c2)"/><polyline points="65,1095 110,1095" fill="none" stroke="#1971c2" stroke-width="3"/><text x="120" y="1097.7" font-size="13" fill="#1e1e1e">SDI DAISY CHAIN</text><polyline points="277,1095 322,1095" fill="none" stroke="#e03131" stroke-width="3"/><text x="332" y="1097.7" font-size="13" fill="#1e1e1e">POWER</text><polyline points="411,1095 456,1095" fill="none" stroke="#2f9e44" stroke-width="3"/><text x="466" y="1097.7" font-size="13" fill="#1e1e1e">HDMI + USB-C POWER (FROM TV)</text><rect x="724.4" y="1081" width="34" height="28" rx="10" fill="#eebefa" stroke="#9c36b5" stroke-width="2"/><text x="768.4" y="1097.7" font-size="13" fill="#1e1e1e">BLACKMAGIC SDI → HDMI CONVERTER</text><rect x="1050.2" y="1081" width="34" height="28" rx="10" fill="#e9ecef" stroke="#495057" stroke-width="2"/><text x="1094.2" y="1097.7" font-size="13" fill="#1e1e1e">8-WAY POWER SPLITTER</text><rect x="1290.2" y="1081" width="34" height="28" rx="10" fill="none" stroke="#1e1e1e" stroke-width="2"/><text x="1334.2" y="1097.7" font-size="13" fill="#1e1e1e">DISPLAY</text><rect x="40" y="1060" width="1378.8" height="70" rx="10" fill="none" stroke="#1e1e1e" stroke-width="2"/></svg>
